# xmcd
#
# Track frame offsets: 
#        150
#        51222
#        72722
#        96977
#        120515
#        132407
#        153965
#        188585
#        202482
#
# Disc length: 2999 seconds
#
# Revision: 3
# Processed by: cddbd v1.5.2PL0 Copyright (c) Steve Scherf et al.
# Submitted via: ExactAudioCopyFreeDBPlugin 1.0
#
DISCID=880bb509
DTITLE=竹松　舞 - Mai Takematsu In Paris-Clair De Lune
DYEAR=1999
DGENRE=Classical
TTITLE0=Introduction And Allegro
TTITLE1=Clair De Lune
TTITLE2=Danses-I. Danse Sacree
TTITLE3=Danses-II. Danse Profane
TTITLE4=La Fille Aux Cheveux De Lin
TTITLE5=Concerto For Harp And Orchestra In B-Flat Major, Op.4-6 -I.All
TTITLE5=egro Moderato
TTITLE6=Concerto For Harp And Orchestra In B-Flat Major, Op.4-6 -II. L
TTITLE6=arghetto (Cadence Original - Marcel Grandjany)
TTITLE7=Concerto For Harp And Orchestra In B-Flat Major, Op.4-6 -III. 
TTITLE7=Allegro Moderato
TTITLE8=Chanson De Mai
EXTD=YEAR: 1999
EXTT0=
EXTT1=
EXTT2=
EXTT3=
EXTT4=
EXTT5=
EXTT6=
EXTT7=
EXTT8=
PLAYORDER=
